<mxfile host="65bd71144e">
    <diagram id="L7U3egqdDMv_mGl-Ydfz" name="Page-1">
        <mxGraphModel dx="515" dy="252" grid="1" gridSize="10" guides="1" tooltips="1" connect="1" arrows="1" fold="1" page="1" pageScale="1" pageWidth="850" pageHeight="1100" math="0" shadow="0">
            <root>
                <mxCell id="0"/>
                <mxCell id="1" parent="0"/>
                <mxCell id="glTiHcGaVegXQPCS3zr0-19" value="w&lt;sup&gt;i&lt;/sup&gt;&lt;sub&gt;12&lt;/sub&gt;" style="rounded=0;orthogonalLoop=1;jettySize=auto;html=1;exitX=1;exitY=0.5;exitDx=0;exitDy=0;entryX=0;entryY=0.5;entryDx=0;entryDy=0;endArrow=none;endFill=0;" parent="1" source="glTiHcGaVegXQPCS3zr0-1" target="glTiHcGaVegXQPCS3zr0-11" edge="1">
                    <mxGeometry relative="1" as="geometry"/>
                </mxCell>
                <mxCell id="glTiHcGaVegXQPCS3zr0-20" value="w&lt;sup&gt;i&lt;/sup&gt;&lt;sub&gt;13&lt;/sub&gt;" style="rounded=0;orthogonalLoop=1;jettySize=auto;html=1;exitX=1;exitY=0.5;exitDx=0;exitDy=0;entryX=0;entryY=0.5;entryDx=0;entryDy=0;endArrow=none;endFill=0;" parent="1" source="glTiHcGaVegXQPCS3zr0-1" target="glTiHcGaVegXQPCS3zr0-12" edge="1">
                    <mxGeometry relative="1" as="geometry"/>
                </mxCell>
                <mxCell id="glTiHcGaVegXQPCS3zr0-21" value="w&lt;sup&gt;i&lt;/sup&gt;&lt;sub&gt;1m&lt;/sub&gt;" style="rounded=0;orthogonalLoop=1;jettySize=auto;html=1;exitX=1;exitY=0.5;exitDx=0;exitDy=0;entryX=0;entryY=0.5;entryDx=0;entryDy=0;endArrow=none;endFill=0;" parent="1" source="glTiHcGaVegXQPCS3zr0-1" target="glTiHcGaVegXQPCS3zr0-13" edge="1">
                    <mxGeometry relative="1" as="geometry"/>
                </mxCell>
                <mxCell id="glTiHcGaVegXQPCS3zr0-1" value="a&lt;sup&gt;i&lt;/sup&gt;&lt;sub&gt;1&lt;/sub&gt;" style="ellipse;whiteSpace=wrap;html=1;aspect=fixed;" parent="1" vertex="1">
                    <mxGeometry x="80" y="240" width="40" height="40" as="geometry"/>
                </mxCell>
                <mxCell id="glTiHcGaVegXQPCS3zr0-2" value="a&lt;sup&gt;i&lt;/sup&gt;&lt;sub&gt;2&lt;/sub&gt;" style="ellipse;whiteSpace=wrap;html=1;aspect=fixed;" parent="1" vertex="1">
                    <mxGeometry x="80" y="320" width="40" height="40" as="geometry"/>
                </mxCell>
                <mxCell id="glTiHcGaVegXQPCS3zr0-3" value="a&lt;sup&gt;i&lt;/sup&gt;&lt;sub&gt;3&lt;/sub&gt;" style="ellipse;whiteSpace=wrap;html=1;aspect=fixed;" parent="1" vertex="1">
                    <mxGeometry x="80" y="400" width="40" height="40" as="geometry"/>
                </mxCell>
                <mxCell id="glTiHcGaVegXQPCS3zr0-4" value="a&lt;sup&gt;i&lt;/sup&gt;n" style="ellipse;whiteSpace=wrap;html=1;aspect=fixed;" parent="1" vertex="1">
                    <mxGeometry x="80" y="510" width="40" height="40" as="geometry"/>
                </mxCell>
                <mxCell id="glTiHcGaVegXQPCS3zr0-5" value="" style="ellipse;whiteSpace=wrap;html=1;aspect=fixed;" parent="1" vertex="1">
                    <mxGeometry x="95" y="450" width="10" height="10" as="geometry"/>
                </mxCell>
                <mxCell id="glTiHcGaVegXQPCS3zr0-6" value="" style="ellipse;whiteSpace=wrap;html=1;aspect=fixed;" parent="1" vertex="1">
                    <mxGeometry x="95" y="470" width="10" height="10" as="geometry"/>
                </mxCell>
                <mxCell id="glTiHcGaVegXQPCS3zr0-8" value="" style="ellipse;whiteSpace=wrap;html=1;aspect=fixed;" parent="1" vertex="1">
                    <mxGeometry x="95" y="490" width="10" height="10" as="geometry"/>
                </mxCell>
                <mxCell id="glTiHcGaVegXQPCS3zr0-10" value="a&lt;sup&gt;i+1&lt;/sup&gt;&lt;sub&gt;1&lt;/sub&gt;" style="ellipse;whiteSpace=wrap;html=1;aspect=fixed;" parent="1" vertex="1">
                    <mxGeometry x="240" y="240" width="40" height="40" as="geometry"/>
                </mxCell>
                <mxCell id="glTiHcGaVegXQPCS3zr0-11" value="a&lt;sup&gt;i+1&lt;/sup&gt;&lt;sub&gt;2&lt;/sub&gt;" style="ellipse;whiteSpace=wrap;html=1;aspect=fixed;" parent="1" vertex="1">
                    <mxGeometry x="240" y="320" width="40" height="40" as="geometry"/>
                </mxCell>
                <mxCell id="glTiHcGaVegXQPCS3zr0-12" value="a&lt;sup&gt;i+1&lt;/sup&gt;&lt;sub&gt;3&lt;/sub&gt;" style="ellipse;whiteSpace=wrap;html=1;aspect=fixed;" parent="1" vertex="1">
                    <mxGeometry x="240" y="400" width="40" height="40" as="geometry"/>
                </mxCell>
                <mxCell id="glTiHcGaVegXQPCS3zr0-13" value="a&lt;sup&gt;i+1&lt;/sup&gt;m" style="ellipse;whiteSpace=wrap;html=1;aspect=fixed;" parent="1" vertex="1">
                    <mxGeometry x="240" y="510" width="40" height="40" as="geometry"/>
                </mxCell>
                <mxCell id="glTiHcGaVegXQPCS3zr0-14" value="" style="ellipse;whiteSpace=wrap;html=1;aspect=fixed;" parent="1" vertex="1">
                    <mxGeometry x="255" y="450" width="10" height="10" as="geometry"/>
                </mxCell>
                <mxCell id="glTiHcGaVegXQPCS3zr0-15" value="" style="ellipse;whiteSpace=wrap;html=1;aspect=fixed;" parent="1" vertex="1">
                    <mxGeometry x="255" y="470" width="10" height="10" as="geometry"/>
                </mxCell>
                <mxCell id="glTiHcGaVegXQPCS3zr0-16" value="" style="ellipse;whiteSpace=wrap;html=1;aspect=fixed;" parent="1" vertex="1">
                    <mxGeometry x="255" y="490" width="10" height="10" as="geometry"/>
                </mxCell>
                <mxCell id="glTiHcGaVegXQPCS3zr0-18" value="w&lt;sup&gt;i&lt;/sup&gt;&lt;sub&gt;11&lt;/sub&gt;" style="endArrow=none;html=1;rounded=0;entryX=0;entryY=0.5;entryDx=0;entryDy=0;exitX=1;exitY=0.5;exitDx=0;exitDy=0;" parent="1" source="glTiHcGaVegXQPCS3zr0-1" target="glTiHcGaVegXQPCS3zr0-10" edge="1">
                    <mxGeometry width="50" height="50" relative="1" as="geometry">
                        <mxPoint x="140" y="270" as="sourcePoint"/>
                        <mxPoint x="170" y="210" as="targetPoint"/>
                    </mxGeometry>
                </mxCell>
                <mxCell id="glTiHcGaVegXQPCS3zr0-26" value="a&lt;sup&gt;i&lt;/sup&gt;&lt;sub&gt;1&lt;/sub&gt;" style="ellipse;whiteSpace=wrap;html=1;aspect=fixed;" parent="1" vertex="1">
                    <mxGeometry x="320" y="240" width="40" height="40" as="geometry"/>
                </mxCell>
                <mxCell id="glTiHcGaVegXQPCS3zr0-41" value="w&lt;sup&gt;i&lt;/sup&gt;&lt;sub&gt;21&lt;/sub&gt;" style="edgeStyle=none;rounded=0;orthogonalLoop=1;jettySize=auto;html=1;exitX=1;exitY=0.5;exitDx=0;exitDy=0;entryX=0;entryY=0.5;entryDx=0;entryDy=0;endArrow=none;endFill=0;" parent="1" source="glTiHcGaVegXQPCS3zr0-27" target="glTiHcGaVegXQPCS3zr0-33" edge="1">
                    <mxGeometry relative="1" as="geometry"/>
                </mxCell>
                <mxCell id="glTiHcGaVegXQPCS3zr0-42" value="w&lt;sup&gt;i&lt;/sup&gt;&lt;sub&gt;22&lt;/sub&gt;" style="edgeStyle=none;rounded=0;orthogonalLoop=1;jettySize=auto;html=1;exitX=1;exitY=0.5;exitDx=0;exitDy=0;entryX=0;entryY=0.5;entryDx=0;entryDy=0;endArrow=none;endFill=0;" parent="1" source="glTiHcGaVegXQPCS3zr0-27" target="glTiHcGaVegXQPCS3zr0-34" edge="1">
                    <mxGeometry relative="1" as="geometry"/>
                </mxCell>
                <mxCell id="glTiHcGaVegXQPCS3zr0-43" value="w&lt;sup&gt;i&lt;/sup&gt;&lt;sub&gt;23&lt;/sub&gt;" style="edgeStyle=none;rounded=0;orthogonalLoop=1;jettySize=auto;html=1;exitX=1;exitY=0.5;exitDx=0;exitDy=0;entryX=0;entryY=0.5;entryDx=0;entryDy=0;endArrow=none;endFill=0;" parent="1" source="glTiHcGaVegXQPCS3zr0-27" target="glTiHcGaVegXQPCS3zr0-35" edge="1">
                    <mxGeometry relative="1" as="geometry"/>
                </mxCell>
                <mxCell id="glTiHcGaVegXQPCS3zr0-44" value="w&lt;sup&gt;i&lt;/sup&gt;&lt;sub&gt;2m&lt;/sub&gt;" style="edgeStyle=none;rounded=0;orthogonalLoop=1;jettySize=auto;html=1;exitX=1;exitY=0.5;exitDx=0;exitDy=0;entryX=0;entryY=0.5;entryDx=0;entryDy=0;endArrow=none;endFill=0;" parent="1" source="glTiHcGaVegXQPCS3zr0-27" target="glTiHcGaVegXQPCS3zr0-36" edge="1">
                    <mxGeometry relative="1" as="geometry"/>
                </mxCell>
                <mxCell id="glTiHcGaVegXQPCS3zr0-27" value="a&lt;sup&gt;i&lt;/sup&gt;&lt;sub&gt;2&lt;/sub&gt;" style="ellipse;whiteSpace=wrap;html=1;aspect=fixed;" parent="1" vertex="1">
                    <mxGeometry x="320" y="320" width="40" height="40" as="geometry"/>
                </mxCell>
                <mxCell id="glTiHcGaVegXQPCS3zr0-28" value="a&lt;sup&gt;i&lt;/sup&gt;&lt;sub&gt;3&lt;/sub&gt;" style="ellipse;whiteSpace=wrap;html=1;aspect=fixed;" parent="1" vertex="1">
                    <mxGeometry x="320" y="400" width="40" height="40" as="geometry"/>
                </mxCell>
                <mxCell id="glTiHcGaVegXQPCS3zr0-29" value="a&lt;sup&gt;i&lt;/sup&gt;n" style="ellipse;whiteSpace=wrap;html=1;aspect=fixed;" parent="1" vertex="1">
                    <mxGeometry x="320" y="510" width="40" height="40" as="geometry"/>
                </mxCell>
                <mxCell id="glTiHcGaVegXQPCS3zr0-30" value="" style="ellipse;whiteSpace=wrap;html=1;aspect=fixed;" parent="1" vertex="1">
                    <mxGeometry x="335" y="450" width="10" height="10" as="geometry"/>
                </mxCell>
                <mxCell id="glTiHcGaVegXQPCS3zr0-31" value="" style="ellipse;whiteSpace=wrap;html=1;aspect=fixed;" parent="1" vertex="1">
                    <mxGeometry x="335" y="470" width="10" height="10" as="geometry"/>
                </mxCell>
                <mxCell id="glTiHcGaVegXQPCS3zr0-32" value="" style="ellipse;whiteSpace=wrap;html=1;aspect=fixed;" parent="1" vertex="1">
                    <mxGeometry x="335" y="490" width="10" height="10" as="geometry"/>
                </mxCell>
                <mxCell id="glTiHcGaVegXQPCS3zr0-33" value="a&lt;sup&gt;i+1&lt;/sup&gt;&lt;sub&gt;1&lt;/sub&gt;" style="ellipse;whiteSpace=wrap;html=1;aspect=fixed;" parent="1" vertex="1">
                    <mxGeometry x="480" y="240" width="40" height="40" as="geometry"/>
                </mxCell>
                <mxCell id="glTiHcGaVegXQPCS3zr0-34" value="a&lt;sup&gt;i+1&lt;/sup&gt;&lt;sub&gt;2&lt;/sub&gt;" style="ellipse;whiteSpace=wrap;html=1;aspect=fixed;" parent="1" vertex="1">
                    <mxGeometry x="480" y="320" width="40" height="40" as="geometry"/>
                </mxCell>
                <mxCell id="glTiHcGaVegXQPCS3zr0-35" value="a&lt;sup&gt;i+1&lt;/sup&gt;&lt;sub&gt;3&lt;/sub&gt;" style="ellipse;whiteSpace=wrap;html=1;aspect=fixed;" parent="1" vertex="1">
                    <mxGeometry x="480" y="400" width="40" height="40" as="geometry"/>
                </mxCell>
                <mxCell id="glTiHcGaVegXQPCS3zr0-36" value="a&lt;sup&gt;i+1&lt;/sup&gt;m" style="ellipse;whiteSpace=wrap;html=1;aspect=fixed;" parent="1" vertex="1">
                    <mxGeometry x="480" y="510" width="40" height="40" as="geometry"/>
                </mxCell>
                <mxCell id="glTiHcGaVegXQPCS3zr0-37" value="" style="ellipse;whiteSpace=wrap;html=1;aspect=fixed;" parent="1" vertex="1">
                    <mxGeometry x="495" y="450" width="10" height="10" as="geometry"/>
                </mxCell>
                <mxCell id="glTiHcGaVegXQPCS3zr0-38" value="" style="ellipse;whiteSpace=wrap;html=1;aspect=fixed;" parent="1" vertex="1">
                    <mxGeometry x="495" y="470" width="10" height="10" as="geometry"/>
                </mxCell>
                <mxCell id="glTiHcGaVegXQPCS3zr0-39" value="" style="ellipse;whiteSpace=wrap;html=1;aspect=fixed;" parent="1" vertex="1">
                    <mxGeometry x="495" y="490" width="10" height="10" as="geometry"/>
                </mxCell>
                <mxCell id="glTiHcGaVegXQPCS3zr0-45" value="a&lt;sup&gt;i&lt;/sup&gt;&lt;sub&gt;1&lt;/sub&gt;" style="ellipse;whiteSpace=wrap;html=1;aspect=fixed;" parent="1" vertex="1">
                    <mxGeometry x="560" y="240" width="40" height="40" as="geometry"/>
                </mxCell>
                <mxCell id="glTiHcGaVegXQPCS3zr0-50" value="a&lt;sup&gt;i&lt;/sup&gt;&lt;sub&gt;2&lt;/sub&gt;" style="ellipse;whiteSpace=wrap;html=1;aspect=fixed;" parent="1" vertex="1">
                    <mxGeometry x="560" y="320" width="40" height="40" as="geometry"/>
                </mxCell>
                <mxCell id="glTiHcGaVegXQPCS3zr0-51" value="a&lt;sup&gt;i&lt;/sup&gt;&lt;sub&gt;3&lt;/sub&gt;" style="ellipse;whiteSpace=wrap;html=1;aspect=fixed;" parent="1" vertex="1">
                    <mxGeometry x="560" y="400" width="40" height="40" as="geometry"/>
                </mxCell>
                <mxCell id="glTiHcGaVegXQPCS3zr0-63" value="w&lt;sup&gt;i&lt;/sup&gt;&lt;sub&gt;n1&lt;/sub&gt;" style="edgeStyle=none;rounded=0;orthogonalLoop=1;jettySize=auto;html=1;exitX=1;exitY=0.5;exitDx=0;exitDy=0;entryX=0;entryY=0.5;entryDx=0;entryDy=0;endArrow=none;endFill=0;" parent="1" source="glTiHcGaVegXQPCS3zr0-52" target="glTiHcGaVegXQPCS3zr0-56" edge="1">
                    <mxGeometry relative="1" as="geometry"/>
                </mxCell>
                <mxCell id="glTiHcGaVegXQPCS3zr0-64" value="w&lt;sup&gt;i&lt;/sup&gt;&lt;sub&gt;n2&lt;/sub&gt;" style="edgeStyle=none;rounded=0;orthogonalLoop=1;jettySize=auto;html=1;exitX=1;exitY=0.5;exitDx=0;exitDy=0;entryX=0;entryY=0.5;entryDx=0;entryDy=0;endArrow=none;endFill=0;" parent="1" source="glTiHcGaVegXQPCS3zr0-52" target="glTiHcGaVegXQPCS3zr0-57" edge="1">
                    <mxGeometry relative="1" as="geometry"/>
                </mxCell>
                <mxCell id="glTiHcGaVegXQPCS3zr0-65" value="w&lt;sup&gt;i&lt;/sup&gt;&lt;sub&gt;n3&lt;/sub&gt;" style="edgeStyle=none;rounded=0;orthogonalLoop=1;jettySize=auto;html=1;exitX=1;exitY=0.5;exitDx=0;exitDy=0;entryX=0;entryY=0.5;entryDx=0;entryDy=0;endArrow=none;endFill=0;" parent="1" source="glTiHcGaVegXQPCS3zr0-52" target="glTiHcGaVegXQPCS3zr0-58" edge="1">
                    <mxGeometry relative="1" as="geometry"/>
                </mxCell>
                <mxCell id="glTiHcGaVegXQPCS3zr0-66" value="w&lt;sup&gt;i&lt;/sup&gt;&lt;sub&gt;nm&lt;/sub&gt;" style="edgeStyle=none;rounded=0;orthogonalLoop=1;jettySize=auto;html=1;exitX=1;exitY=0.5;exitDx=0;exitDy=0;entryX=0;entryY=0.5;entryDx=0;entryDy=0;endArrow=none;endFill=0;" parent="1" source="glTiHcGaVegXQPCS3zr0-52" target="glTiHcGaVegXQPCS3zr0-59" edge="1">
                    <mxGeometry relative="1" as="geometry"/>
                </mxCell>
                <mxCell id="glTiHcGaVegXQPCS3zr0-52" value="a&lt;sup&gt;i&lt;/sup&gt;n" style="ellipse;whiteSpace=wrap;html=1;aspect=fixed;" parent="1" vertex="1">
                    <mxGeometry x="560" y="510" width="40" height="40" as="geometry"/>
                </mxCell>
                <mxCell id="glTiHcGaVegXQPCS3zr0-53" value="" style="ellipse;whiteSpace=wrap;html=1;aspect=fixed;" parent="1" vertex="1">
                    <mxGeometry x="575" y="450" width="10" height="10" as="geometry"/>
                </mxCell>
                <mxCell id="glTiHcGaVegXQPCS3zr0-54" value="" style="ellipse;whiteSpace=wrap;html=1;aspect=fixed;" parent="1" vertex="1">
                    <mxGeometry x="575" y="470" width="10" height="10" as="geometry"/>
                </mxCell>
                <mxCell id="glTiHcGaVegXQPCS3zr0-55" value="" style="ellipse;whiteSpace=wrap;html=1;aspect=fixed;" parent="1" vertex="1">
                    <mxGeometry x="575" y="490" width="10" height="10" as="geometry"/>
                </mxCell>
                <mxCell id="glTiHcGaVegXQPCS3zr0-56" value="a&lt;sup&gt;i+1&lt;/sup&gt;&lt;sub&gt;1&lt;/sub&gt;" style="ellipse;whiteSpace=wrap;html=1;aspect=fixed;" parent="1" vertex="1">
                    <mxGeometry x="720" y="240" width="40" height="40" as="geometry"/>
                </mxCell>
                <mxCell id="glTiHcGaVegXQPCS3zr0-57" value="a&lt;sup&gt;i+1&lt;/sup&gt;&lt;sub&gt;2&lt;/sub&gt;" style="ellipse;whiteSpace=wrap;html=1;aspect=fixed;" parent="1" vertex="1">
                    <mxGeometry x="720" y="320" width="40" height="40" as="geometry"/>
                </mxCell>
                <mxCell id="glTiHcGaVegXQPCS3zr0-58" value="a&lt;sup&gt;i+1&lt;/sup&gt;&lt;sub&gt;3&lt;/sub&gt;" style="ellipse;whiteSpace=wrap;html=1;aspect=fixed;" parent="1" vertex="1">
                    <mxGeometry x="720" y="400" width="40" height="40" as="geometry"/>
                </mxCell>
                <mxCell id="glTiHcGaVegXQPCS3zr0-59" value="a&lt;sup&gt;i+1&lt;/sup&gt;m" style="ellipse;whiteSpace=wrap;html=1;aspect=fixed;" parent="1" vertex="1">
                    <mxGeometry x="720" y="510" width="40" height="40" as="geometry"/>
                </mxCell>
                <mxCell id="glTiHcGaVegXQPCS3zr0-60" value="" style="ellipse;whiteSpace=wrap;html=1;aspect=fixed;" parent="1" vertex="1">
                    <mxGeometry x="735" y="450" width="10" height="10" as="geometry"/>
                </mxCell>
                <mxCell id="glTiHcGaVegXQPCS3zr0-61" value="" style="ellipse;whiteSpace=wrap;html=1;aspect=fixed;" parent="1" vertex="1">
                    <mxGeometry x="735" y="470" width="10" height="10" as="geometry"/>
                </mxCell>
                <mxCell id="glTiHcGaVegXQPCS3zr0-62" value="" style="ellipse;whiteSpace=wrap;html=1;aspect=fixed;" parent="1" vertex="1">
                    <mxGeometry x="735" y="490" width="10" height="10" as="geometry"/>
                </mxCell>
                <mxCell id="glTiHcGaVegXQPCS3zr0-85" style="edgeStyle=none;rounded=0;orthogonalLoop=1;jettySize=auto;html=1;exitX=1;exitY=0.5;exitDx=0;exitDy=0;entryX=0;entryY=0.5;entryDx=0;entryDy=0;endArrow=none;endFill=0;" parent="1" source="glTiHcGaVegXQPCS3zr0-70" target="glTiHcGaVegXQPCS3zr0-77" edge="1">
                    <mxGeometry relative="1" as="geometry"/>
                </mxCell>
                <mxCell id="glTiHcGaVegXQPCS3zr0-86" style="edgeStyle=none;rounded=0;orthogonalLoop=1;jettySize=auto;html=1;exitX=1;exitY=0.5;exitDx=0;exitDy=0;entryX=0;entryY=0.5;entryDx=0;entryDy=0;endArrow=none;endFill=0;" parent="1" source="glTiHcGaVegXQPCS3zr0-70" target="glTiHcGaVegXQPCS3zr0-78" edge="1">
                    <mxGeometry relative="1" as="geometry"/>
                </mxCell>
                <mxCell id="glTiHcGaVegXQPCS3zr0-87" style="edgeStyle=none;rounded=0;orthogonalLoop=1;jettySize=auto;html=1;exitX=1;exitY=0.5;exitDx=0;exitDy=0;entryX=0;entryY=0.5;entryDx=0;entryDy=0;endArrow=none;endFill=0;" parent="1" source="glTiHcGaVegXQPCS3zr0-70" target="glTiHcGaVegXQPCS3zr0-79" edge="1">
                    <mxGeometry relative="1" as="geometry"/>
                </mxCell>
                <mxCell id="glTiHcGaVegXQPCS3zr0-88" style="edgeStyle=none;rounded=0;orthogonalLoop=1;jettySize=auto;html=1;exitX=1;exitY=0.5;exitDx=0;exitDy=0;entryX=0;entryY=0.5;entryDx=0;entryDy=0;endArrow=none;endFill=0;" parent="1" source="glTiHcGaVegXQPCS3zr0-70" target="glTiHcGaVegXQPCS3zr0-80" edge="1">
                    <mxGeometry relative="1" as="geometry"/>
                </mxCell>
                <mxCell id="glTiHcGaVegXQPCS3zr0-70" value="a&lt;sup&gt;i&lt;/sup&gt;&lt;sub&gt;1&lt;/sub&gt;" style="ellipse;whiteSpace=wrap;html=1;aspect=fixed;" parent="1" vertex="1">
                    <mxGeometry x="80" y="690" width="40" height="40" as="geometry"/>
                </mxCell>
                <mxCell id="glTiHcGaVegXQPCS3zr0-93" style="edgeStyle=none;rounded=0;orthogonalLoop=1;jettySize=auto;html=1;exitX=1;exitY=0.5;exitDx=0;exitDy=0;entryX=0;entryY=0.5;entryDx=0;entryDy=0;endArrow=none;endFill=0;" parent="1" source="glTiHcGaVegXQPCS3zr0-71" target="glTiHcGaVegXQPCS3zr0-77" edge="1">
                    <mxGeometry relative="1" as="geometry"/>
                </mxCell>
                <mxCell id="glTiHcGaVegXQPCS3zr0-94" style="edgeStyle=none;rounded=0;orthogonalLoop=1;jettySize=auto;html=1;exitX=1;exitY=0.5;exitDx=0;exitDy=0;entryX=0;entryY=0.5;entryDx=0;entryDy=0;endArrow=none;endFill=0;" parent="1" source="glTiHcGaVegXQPCS3zr0-71" target="glTiHcGaVegXQPCS3zr0-78" edge="1">
                    <mxGeometry relative="1" as="geometry"/>
                </mxCell>
                <mxCell id="glTiHcGaVegXQPCS3zr0-95" style="edgeStyle=none;rounded=0;orthogonalLoop=1;jettySize=auto;html=1;exitX=1;exitY=0.5;exitDx=0;exitDy=0;entryX=0;entryY=0.5;entryDx=0;entryDy=0;endArrow=none;endFill=0;" parent="1" source="glTiHcGaVegXQPCS3zr0-71" target="glTiHcGaVegXQPCS3zr0-79" edge="1">
                    <mxGeometry relative="1" as="geometry"/>
                </mxCell>
                <mxCell id="glTiHcGaVegXQPCS3zr0-96" style="edgeStyle=none;rounded=0;orthogonalLoop=1;jettySize=auto;html=1;exitX=1;exitY=0.5;exitDx=0;exitDy=0;entryX=0;entryY=0.5;entryDx=0;entryDy=0;endArrow=none;endFill=0;" parent="1" source="glTiHcGaVegXQPCS3zr0-71" target="glTiHcGaVegXQPCS3zr0-80" edge="1">
                    <mxGeometry relative="1" as="geometry"/>
                </mxCell>
                <mxCell id="glTiHcGaVegXQPCS3zr0-71" value="a&lt;sup&gt;i&lt;/sup&gt;&lt;sub&gt;2&lt;/sub&gt;" style="ellipse;whiteSpace=wrap;html=1;aspect=fixed;" parent="1" vertex="1">
                    <mxGeometry x="80" y="770" width="40" height="40" as="geometry"/>
                </mxCell>
                <mxCell id="glTiHcGaVegXQPCS3zr0-97" style="edgeStyle=none;rounded=0;orthogonalLoop=1;jettySize=auto;html=1;exitX=1;exitY=0.5;exitDx=0;exitDy=0;entryX=0;entryY=0.5;entryDx=0;entryDy=0;endArrow=none;endFill=0;" parent="1" source="glTiHcGaVegXQPCS3zr0-72" target="glTiHcGaVegXQPCS3zr0-80" edge="1">
                    <mxGeometry relative="1" as="geometry"/>
                </mxCell>
                <mxCell id="glTiHcGaVegXQPCS3zr0-98" style="edgeStyle=none;rounded=0;orthogonalLoop=1;jettySize=auto;html=1;exitX=1;exitY=0.5;exitDx=0;exitDy=0;entryX=0;entryY=0.5;entryDx=0;entryDy=0;endArrow=none;endFill=0;" parent="1" source="glTiHcGaVegXQPCS3zr0-72" target="glTiHcGaVegXQPCS3zr0-79" edge="1">
                    <mxGeometry relative="1" as="geometry"/>
                </mxCell>
                <mxCell id="glTiHcGaVegXQPCS3zr0-99" style="edgeStyle=none;rounded=0;orthogonalLoop=1;jettySize=auto;html=1;exitX=1;exitY=0.5;exitDx=0;exitDy=0;entryX=0;entryY=0.5;entryDx=0;entryDy=0;endArrow=none;endFill=0;" parent="1" source="glTiHcGaVegXQPCS3zr0-72" target="glTiHcGaVegXQPCS3zr0-78" edge="1">
                    <mxGeometry relative="1" as="geometry"/>
                </mxCell>
                <mxCell id="glTiHcGaVegXQPCS3zr0-100" style="edgeStyle=none;rounded=0;orthogonalLoop=1;jettySize=auto;html=1;exitX=1;exitY=0.5;exitDx=0;exitDy=0;entryX=0;entryY=0.5;entryDx=0;entryDy=0;endArrow=none;endFill=0;" parent="1" source="glTiHcGaVegXQPCS3zr0-72" target="glTiHcGaVegXQPCS3zr0-77" edge="1">
                    <mxGeometry relative="1" as="geometry"/>
                </mxCell>
                <mxCell id="glTiHcGaVegXQPCS3zr0-72" value="a&lt;sup&gt;i&lt;/sup&gt;&lt;sub&gt;3&lt;/sub&gt;" style="ellipse;whiteSpace=wrap;html=1;aspect=fixed;" parent="1" vertex="1">
                    <mxGeometry x="80" y="850" width="40" height="40" as="geometry"/>
                </mxCell>
                <mxCell id="glTiHcGaVegXQPCS3zr0-89" style="edgeStyle=none;rounded=0;orthogonalLoop=1;jettySize=auto;html=1;exitX=1;exitY=0.5;exitDx=0;exitDy=0;entryX=0;entryY=0.5;entryDx=0;entryDy=0;endArrow=none;endFill=0;" parent="1" source="glTiHcGaVegXQPCS3zr0-73" target="glTiHcGaVegXQPCS3zr0-80" edge="1">
                    <mxGeometry relative="1" as="geometry"/>
                </mxCell>
                <mxCell id="glTiHcGaVegXQPCS3zr0-90" style="edgeStyle=none;rounded=0;orthogonalLoop=1;jettySize=auto;html=1;exitX=1;exitY=0.5;exitDx=0;exitDy=0;entryX=0;entryY=0.5;entryDx=0;entryDy=0;endArrow=none;endFill=0;" parent="1" source="glTiHcGaVegXQPCS3zr0-73" target="glTiHcGaVegXQPCS3zr0-79" edge="1">
                    <mxGeometry relative="1" as="geometry"/>
                </mxCell>
                <mxCell id="glTiHcGaVegXQPCS3zr0-91" style="edgeStyle=none;rounded=0;orthogonalLoop=1;jettySize=auto;html=1;exitX=1;exitY=0.5;exitDx=0;exitDy=0;endArrow=none;endFill=0;entryX=0;entryY=0.5;entryDx=0;entryDy=0;" parent="1" source="glTiHcGaVegXQPCS3zr0-73" target="glTiHcGaVegXQPCS3zr0-78" edge="1">
                    <mxGeometry relative="1" as="geometry">
                        <mxPoint x="230" y="810" as="targetPoint"/>
                    </mxGeometry>
                </mxCell>
                <mxCell id="glTiHcGaVegXQPCS3zr0-92" style="edgeStyle=none;rounded=0;orthogonalLoop=1;jettySize=auto;html=1;exitX=1;exitY=0.5;exitDx=0;exitDy=0;entryX=0;entryY=0.5;entryDx=0;entryDy=0;endArrow=none;endFill=0;" parent="1" source="glTiHcGaVegXQPCS3zr0-73" target="glTiHcGaVegXQPCS3zr0-77" edge="1">
                    <mxGeometry relative="1" as="geometry"/>
                </mxCell>
                <mxCell id="glTiHcGaVegXQPCS3zr0-73" value="a&lt;sup&gt;i&lt;/sup&gt;n" style="ellipse;whiteSpace=wrap;html=1;aspect=fixed;" parent="1" vertex="1">
                    <mxGeometry x="80" y="960" width="40" height="40" as="geometry"/>
                </mxCell>
                <mxCell id="glTiHcGaVegXQPCS3zr0-74" value="" style="ellipse;whiteSpace=wrap;html=1;aspect=fixed;" parent="1" vertex="1">
                    <mxGeometry x="95" y="900" width="10" height="10" as="geometry"/>
                </mxCell>
                <mxCell id="glTiHcGaVegXQPCS3zr0-75" value="" style="ellipse;whiteSpace=wrap;html=1;aspect=fixed;" parent="1" vertex="1">
                    <mxGeometry x="95" y="920" width="10" height="10" as="geometry"/>
                </mxCell>
                <mxCell id="glTiHcGaVegXQPCS3zr0-76" value="" style="ellipse;whiteSpace=wrap;html=1;aspect=fixed;" parent="1" vertex="1">
                    <mxGeometry x="95" y="940" width="10" height="10" as="geometry"/>
                </mxCell>
                <mxCell id="glTiHcGaVegXQPCS3zr0-77" value="a&lt;sup&gt;i+1&lt;/sup&gt;&lt;sub&gt;1&lt;/sub&gt;" style="ellipse;whiteSpace=wrap;html=1;aspect=fixed;" parent="1" vertex="1">
                    <mxGeometry x="240" y="690" width="40" height="40" as="geometry"/>
                </mxCell>
                <mxCell id="glTiHcGaVegXQPCS3zr0-78" value="a&lt;sup&gt;i+1&lt;/sup&gt;&lt;sub&gt;2&lt;/sub&gt;" style="ellipse;whiteSpace=wrap;html=1;aspect=fixed;" parent="1" vertex="1">
                    <mxGeometry x="240" y="770" width="40" height="40" as="geometry"/>
                </mxCell>
                <mxCell id="glTiHcGaVegXQPCS3zr0-79" value="a&lt;sup&gt;i+1&lt;/sup&gt;&lt;sub&gt;3&lt;/sub&gt;" style="ellipse;whiteSpace=wrap;html=1;aspect=fixed;" parent="1" vertex="1">
                    <mxGeometry x="240" y="850" width="40" height="40" as="geometry"/>
                </mxCell>
                <mxCell id="glTiHcGaVegXQPCS3zr0-80" value="a&lt;sup&gt;i+1&lt;/sup&gt;m" style="ellipse;whiteSpace=wrap;html=1;aspect=fixed;" parent="1" vertex="1">
                    <mxGeometry x="240" y="960" width="40" height="40" as="geometry"/>
                </mxCell>
                <mxCell id="glTiHcGaVegXQPCS3zr0-81" value="" style="ellipse;whiteSpace=wrap;html=1;aspect=fixed;" parent="1" vertex="1">
                    <mxGeometry x="255" y="900" width="10" height="10" as="geometry"/>
                </mxCell>
                <mxCell id="glTiHcGaVegXQPCS3zr0-82" value="" style="ellipse;whiteSpace=wrap;html=1;aspect=fixed;" parent="1" vertex="1">
                    <mxGeometry x="255" y="920" width="10" height="10" as="geometry"/>
                </mxCell>
                <mxCell id="glTiHcGaVegXQPCS3zr0-83" value="" style="ellipse;whiteSpace=wrap;html=1;aspect=fixed;" parent="1" vertex="1">
                    <mxGeometry x="255" y="940" width="10" height="10" as="geometry"/>
                </mxCell>
                <mxCell id="glTiHcGaVegXQPCS3zr0-103" value="" style="endArrow=none;html=1;rounded=0;" parent="1" edge="1">
                    <mxGeometry width="50" height="50" relative="1" as="geometry">
                        <mxPoint x="79.31" y="670" as="sourcePoint"/>
                        <mxPoint x="119.31" y="670" as="targetPoint"/>
                    </mxGeometry>
                </mxCell>
                <mxCell id="glTiHcGaVegXQPCS3zr0-104" value="" style="endArrow=none;html=1;rounded=0;" parent="1" edge="1">
                    <mxGeometry width="50" height="50" relative="1" as="geometry">
                        <mxPoint x="79.31" y="680" as="sourcePoint"/>
                        <mxPoint x="79.31" y="670" as="targetPoint"/>
                    </mxGeometry>
                </mxCell>
                <mxCell id="glTiHcGaVegXQPCS3zr0-105" value="" style="endArrow=none;html=1;rounded=0;" parent="1" edge="1">
                    <mxGeometry width="50" height="50" relative="1" as="geometry">
                        <mxPoint x="119.31" y="670" as="sourcePoint"/>
                        <mxPoint x="119.31" y="680" as="targetPoint"/>
                    </mxGeometry>
                </mxCell>
                <mxCell id="glTiHcGaVegXQPCS3zr0-106" value="a&lt;sup&gt;i&lt;/sup&gt;" style="text;strokeColor=none;fillColor=none;html=1;fontSize=24;fontStyle=1;verticalAlign=middle;align=center;" parent="1" vertex="1">
                    <mxGeometry x="50" y="630" width="100" height="40" as="geometry"/>
                </mxCell>
                <mxCell id="glTiHcGaVegXQPCS3zr0-107" value="" style="endArrow=none;html=1;rounded=0;" parent="1" edge="1">
                    <mxGeometry width="50" height="50" relative="1" as="geometry">
                        <mxPoint x="140" y="670" as="sourcePoint"/>
                        <mxPoint x="220" y="670" as="targetPoint"/>
                    </mxGeometry>
                </mxCell>
                <mxCell id="glTiHcGaVegXQPCS3zr0-108" value="" style="endArrow=none;html=1;rounded=0;" parent="1" edge="1">
                    <mxGeometry width="50" height="50" relative="1" as="geometry">
                        <mxPoint x="139.99999999999994" y="679.9999999999998" as="sourcePoint"/>
                        <mxPoint x="139.99999999999994" y="669.9999999999998" as="targetPoint"/>
                    </mxGeometry>
                </mxCell>
                <mxCell id="glTiHcGaVegXQPCS3zr0-109" value="" style="endArrow=none;html=1;rounded=0;" parent="1" edge="1">
                    <mxGeometry width="50" height="50" relative="1" as="geometry">
                        <mxPoint x="219.99999999999994" y="669.9999999999998" as="sourcePoint"/>
                        <mxPoint x="219.99999999999994" y="679.9999999999998" as="targetPoint"/>
                    </mxGeometry>
                </mxCell>
                <mxCell id="glTiHcGaVegXQPCS3zr0-110" value="w&lt;sup&gt;i&lt;/sup&gt;" style="text;strokeColor=none;fillColor=none;html=1;fontSize=24;fontStyle=1;verticalAlign=middle;align=center;" parent="1" vertex="1">
                    <mxGeometry x="130" y="630" width="100" height="40" as="geometry"/>
                </mxCell>
                <mxCell id="glTiHcGaVegXQPCS3zr0-114" value="" style="endArrow=none;html=1;rounded=0;" parent="1" edge="1">
                    <mxGeometry width="50" height="50" relative="1" as="geometry">
                        <mxPoint x="239.30999999999995" y="669.9999999999998" as="sourcePoint"/>
                        <mxPoint x="279.30999999999995" y="669.9999999999998" as="targetPoint"/>
                    </mxGeometry>
                </mxCell>
                <mxCell id="glTiHcGaVegXQPCS3zr0-115" value="" style="endArrow=none;html=1;rounded=0;" parent="1" edge="1">
                    <mxGeometry width="50" height="50" relative="1" as="geometry">
                        <mxPoint x="239.30999999999995" y="679.9999999999998" as="sourcePoint"/>
                        <mxPoint x="239.30999999999995" y="669.9999999999998" as="targetPoint"/>
                    </mxGeometry>
                </mxCell>
                <mxCell id="glTiHcGaVegXQPCS3zr0-116" value="" style="endArrow=none;html=1;rounded=0;" parent="1" edge="1">
                    <mxGeometry width="50" height="50" relative="1" as="geometry">
                        <mxPoint x="279.30999999999995" y="669.9999999999998" as="sourcePoint"/>
                        <mxPoint x="279.30999999999995" y="679.9999999999998" as="targetPoint"/>
                    </mxGeometry>
                </mxCell>
                <mxCell id="glTiHcGaVegXQPCS3zr0-117" value="a&lt;sup&gt;i+1&lt;/sup&gt;" style="text;strokeColor=none;fillColor=none;html=1;fontSize=24;fontStyle=1;verticalAlign=middle;align=center;" parent="1" vertex="1">
                    <mxGeometry x="210" y="630" width="100" height="40" as="geometry"/>
                </mxCell>
            </root>
        </mxGraphModel>
    </diagram>
</mxfile>